<svg xmlns="http://www.w3.org/2000/svg" viewBox="0 0 1440 900" preserveAspectRatio="xMidYMid slice">

  <!-- ═══════════════════════════════════════
       TOP-LEFT CLUSTER — 3 overlapping fronds
  ════════════════════════════════════════════ -->

  <!-- TL Frond A — sweeping down-right -->
  <g opacity="0.95">
    <path d="M-80 -20 C40 80 170 190 280 310 C340 375 385 428 405 470" stroke="#c4a44a" stroke-width="3.5" fill="none"/>
    <path d="M-30 28 C-54 50 -82 65 -116 72 C-86 56 -56 42 -30 28Z" fill="#c4a44a"/>
    <path d="M12 64 C-14 88 -44 105 -80 114 C-48 96 -16 80 12 64Z" fill="#c4a44a"/>
    <path d="M58 104 C30 130 -2 149 -40 160 C-6 140 28 120 58 104Z" fill="#c4a44a"/>
    <path d="M106 148 C76 176 42 197 2 208 C38 186 76 164 106 148Z" fill="#c4a44a"/>
    <path d="M156 196 C124 226 88 248 46 260 C84 236 124 214 156 196Z" fill="#c4a44a"/>
    <path d="M204 246 C170 278 132 301 88 314 C128 288 170 264 204 246Z" fill="#c4a44a"/>
    <path d="M248 296 C212 329 172 353 126 366 C168 339 212 314 248 296Z" fill="#c4a44a"/>
    <path d="M288 346 C250 380 208 404 160 416 C204 389 250 363 288 346Z" fill="#c4a44a"/>
    <!-- upper leaflets -->
    <path d="M-30 28 C-14 4 -4 -20 4 -48 C-2 -22 -10 4 -30 28Z" fill="#c4a44a"/>
    <path d="M12 64 C32 38 46 12 58 -18 C48 10 36 36 12 64Z" fill="#c4a44a"/>
    <path d="M58 104 C82 76 100 50 116 18 C104 48 88 76 58 104Z" fill="#c4a44a"/>
    <path d="M106 148 C134 118 156 90 176 58 C162 88 144 118 106 148Z" fill="#c4a44a"/>
    <path d="M156 196 C186 164 212 136 236 104 C218 134 198 164 156 196Z" fill="#c4a44a"/>
    <path d="M204 246 C236 213 264 184 292 152 C272 182 248 212 204 246Z" fill="#c4a44a"/>
  </g>

  <!-- TL Frond B — more downward, behind A -->
  <g opacity="0.75">
    <path d="M-100 60 C-10 150 100 258 198 368 C258 432 302 484 318 524" stroke="#c4a44a" stroke-width="3" fill="none"/>
    <path d="M-58 100 C-82 122 -110 138 -144 146 C-114 130 -84 114 -58 100Z" fill="#c4a44a"/>
    <path d="M-18 138 C-44 162 -74 180 -110 190 C-78 172 -46 154 -18 138Z" fill="#c4a44a"/>
    <path d="M24 180 C-4 206 -36 225 -74 236 C-40 216 -6 196 24 180Z" fill="#c4a44a"/>
    <path d="M68 224 C38 252 4 272 -36 284 C0 262 36 242 68 224Z" fill="#c4a44a"/>
    <path d="M114 270 C82 300 46 321 4 334 C42 310 80 288 114 270Z" fill="#c4a44a"/>
    <path d="M158 318 C124 349 86 371 42 384 C82 358 122 335 158 318Z" fill="#c4a44a"/>
    <path d="M198 364 C162 396 122 418 76 430 C118 404 160 380 198 364Z" fill="#c4a44a"/>
    <!-- upper -->
    <path d="M-58 100 C-38 74 -24 48 -16 18 C-22 46 -32 72 -58 100Z" fill="#c4a44a"/>
    <path d="M-18 138 C4 110 22 82 34 52 C26 80 12 108 -18 138Z" fill="#c4a44a"/>
    <path d="M24 180 C50 150 72 122 88 90 C78 120 60 150 24 180Z" fill="#c4a44a"/>
    <path d="M68 224 C98 192 122 162 142 130 C130 162 110 192 68 224Z" fill="#c4a44a"/>
    <path d="M114 270 C146 236 174 206 198 174 C182 206 158 236 114 270Z" fill="#c4a44a"/>
  </g>

  <!-- TL Frond C — nearly horizontal left -->
  <g opacity="0.65">
    <path d="M-120 180 C-20 210 100 240 220 268 C300 286 362 298 400 306" stroke="#c4a44a" stroke-width="2.5" fill="none"/>
    <path d="M-72 196 C-90 218 -114 232 -144 238 C-118 222 -92 208 -72 196Z" fill="#c4a44a"/>
    <path d="M-28 210 C-48 234 -74 250 -106 258 C-78 240 -50 224 -28 210Z" fill="#c4a44a"/>
    <path d="M18 224 C-4 250 -32 267 -66 276 C-36 256 -6 239 18 224Z" fill="#c4a44a"/>
    <path d="M66 237 C42 264 12 282 -24 292 C8 270 40 252 66 237Z" fill="#c4a44a"/>
    <path d="M116 249 C90 277 58 296 20 307 C54 284 90 264 116 249Z" fill="#c4a44a"/>
    <path d="M166 260 C138 289 105 309 65 320 C101 296 140 275 166 260Z" fill="#c4a44a"/>
    <!-- upper -->
    <path d="M-72 196 C-60 172 -52 148 -46 120 C-52 146 -58 172 -72 196Z" fill="#c4a44a"/>
    <path d="M-28 210 C-12 184 -2 158 6 130 C-2 156 -10 184 -28 210Z" fill="#c4a44a"/>
    <path d="M18 224 C38 196 52 170 62 142 C52 168 40 196 18 224Z" fill="#c4a44a"/>
    <path d="M66 237 C88 208 106 182 118 152 C106 180 90 208 66 237Z" fill="#c4a44a"/>
  </g>

  <!-- ═══════════════════════════════════════
       TOP-RIGHT CLUSTER — 3 overlapping fronds
  ════════════════════════════════════════════ -->

  <!-- TR Frond A -->
  <g opacity="0.95">
    <path d="M1520 -20 C1400 80 1270 190 1160 310 C1100 375 1055 428 1035 470" stroke="#c4a44a" stroke-width="3.5" fill="none"/>
    <path d="M1470 28 C1494 50 1522 65 1556 72 C1526 56 1496 42 1470 28Z" fill="#c4a44a"/>
    <path d="M1428 64 C1454 88 1484 105 1520 114 C1488 96 1456 80 1428 64Z" fill="#c4a44a"/>
    <path d="M1382 104 C1410 130 1442 149 1480 160 C1446 140 1410 120 1382 104Z" fill="#c4a44a"/>
    <path d="M1334 148 C1364 176 1398 197 1438 208 C1402 186 1364 164 1334 148Z" fill="#c4a44a"/>
    <path d="M1284 196 C1316 226 1352 248 1394 260 C1356 236 1316 214 1284 196Z" fill="#c4a44a"/>
    <path d="M1236 246 C1270 278 1308 301 1352 314 C1312 288 1270 264 1236 246Z" fill="#c4a44a"/>
    <path d="M1192 296 C1228 329 1268 353 1314 366 C1272 339 1228 314 1192 296Z" fill="#c4a44a"/>
    <path d="M1152 346 C1190 380 1232 404 1280 416 C1236 389 1190 363 1152 346Z" fill="#c4a44a"/>
    <!-- upper -->
    <path d="M1470 28 C1454 4 1444 -20 1436 -48 C1442 -22 1450 4 1470 28Z" fill="#c4a44a"/>
    <path d="M1428 64 C1408 38 1394 12 1382 -18 C1392 10 1404 36 1428 64Z" fill="#c4a44a"/>
    <path d="M1382 104 C1358 76 1340 50 1324 18 C1336 48 1352 76 1382 104Z" fill="#c4a44a"/>
    <path d="M1334 148 C1306 118 1284 90 1264 58 C1278 88 1296 118 1334 148Z" fill="#c4a44a"/>
    <path d="M1284 196 C1254 164 1228 136 1204 104 C1222 134 1242 164 1284 196Z" fill="#c4a44a"/>
    <path d="M1236 246 C1204 213 1176 184 1148 152 C1168 182 1192 212 1236 246Z" fill="#c4a44a"/>
  </g>

  <!-- TR Frond B -->
  <g opacity="0.75">
    <path d="M1540 60 C1450 150 1340 258 1242 368 C1182 432 1138 484 1122 524" stroke="#c4a44a" stroke-width="3" fill="none"/>
    <path d="M1498 100 C1522 122 1550 138 1584 146 C1554 130 1524 114 1498 100Z" fill="#c4a44a"/>
    <path d="M1458 138 C1484 162 1514 180 1550 190 C1518 172 1486 154 1458 138Z" fill="#c4a44a"/>
    <path d="M1416 180 C1444 206 1476 225 1514 236 C1480 216 1446 196 1416 180Z" fill="#c4a44a"/>
    <path d="M1372 224 C1402 252 1436 272 1476 284 C1440 262 1404 242 1372 224Z" fill="#c4a44a"/>
    <path d="M1326 270 C1358 300 1394 321 1436 334 C1398 310 1360 288 1326 270Z" fill="#c4a44a"/>
    <path d="M1282 318 C1316 349 1354 371 1398 384 C1358 358 1318 335 1282 318Z" fill="#c4a44a"/>
    <!-- upper -->
    <path d="M1498 100 C1478 74 1464 48 1456 18 C1462 46 1472 72 1498 100Z" fill="#c4a44a"/>
    <path d="M1458 138 C1436 110 1418 82 1406 52 C1414 80 1428 108 1458 138Z" fill="#c4a44a"/>
    <path d="M1416 180 C1390 150 1368 122 1352 90 C1362 120 1380 150 1416 180Z" fill="#c4a44a"/>
    <path d="M1372 224 C1342 192 1318 162 1298 130 C1310 162 1330 192 1372 224Z" fill="#c4a44a"/>
  </g>

  <!-- TR Frond C — nearly horizontal right -->
  <g opacity="0.65">
    <path d="M1560 180 C1460 210 1340 240 1220 268 C1140 286 1078 298 1040 306" stroke="#c4a44a" stroke-width="2.5" fill="none"/>
    <path d="M1512 196 C1530 218 1554 232 1584 238 C1558 222 1532 208 1512 196Z" fill="#c4a44a"/>
    <path d="M1468 210 C1488 234 1514 250 1546 258 C1518 240 1490 224 1468 210Z" fill="#c4a44a"/>
    <path d="M1422 224 C1444 250 1472 267 1506 276 C1476 256 1446 239 1422 224Z" fill="#c4a44a"/>
    <path d="M1374 237 C1398 264 1428 282 1464 292 C1432 270 1400 252 1374 237Z" fill="#c4a44a"/>
    <path d="M1324 249 C1350 277 1382 296 1420 307 C1386 284 1350 264 1324 249Z" fill="#c4a44a"/>
    <!-- upper -->
    <path d="M1512 196 C1500 172 1492 148 1486 120 C1492 146 1498 172 1512 196Z" fill="#c4a44a"/>
    <path d="M1468 210 C1452 184 1442 158 1434 130 C1442 156 1450 184 1468 210Z" fill="#c4a44a"/>
    <path d="M1422 224 C1402 196 1388 170 1378 142 C1388 168 1400 196 1422 224Z" fill="#c4a44a"/>
  </g>

  <!-- ═══════════════════════════════════════
       BOTTOM-LEFT CLUSTER
  ════════════════════════════════════════════ -->
  <g opacity="0.88">
    <path d="M-60 950 C60 860 190 758 302 658 C370 596 420 548 440 510" stroke="#c4a44a" stroke-width="3.5" fill="none"/>
    <path d="M-14 910 C-38 890 -66 876 -98 870 C-68 882 -38 896 -14 910Z" fill="#c4a44a"/>
    <path d="M32 872 C6 850 -24 835 -58 828 C-26 841 6 857 32 872Z" fill="#c4a44a"/>
    <path d="M80 832 C52 808 20 792 -16 785 C18 799 52 815 80 832Z" fill="#c4a44a"/>
    <path d="M130 790 C100 765 66 748 28 741 C64 755 100 772 130 790Z" fill="#c4a44a"/>
    <path d="M180 746 C148 720 113 702 73 695 C111 709 148 727 180 746Z" fill="#c4a44a"/>
    <path d="M228 700 C195 673 158 655 116 648 C156 662 196 680 228 700Z" fill="#c4a44a"/>
    <path d="M272 654 C238 626 200 607 156 600 C198 615 238 633 272 654Z" fill="#c4a44a"/>
    <!-- upper side -->
    <path d="M-14 910 C4 888 16 864 10 838 C2 862 -6 888 -14 910Z" fill="#c4a44a"/>
    <path d="M32 872 C52 848 68 824 66 796 C56 820 42 847 32 872Z" fill="#c4a44a"/>
    <path d="M80 832 C102 806 120 780 122 752 C110 778 92 806 80 832Z" fill="#c4a44a"/>
    <path d="M130 790 C154 762 176 736 180 708 C166 734 148 762 130 790Z" fill="#c4a44a"/>
    <path d="M180 746 C206 716 230 690 237 660 C221 688 202 716 180 746Z" fill="#c4a44a"/>
  </g>
  <g opacity="0.65">
    <path d="M-100 880 C10 806 130 720 238 632 C304 578 352 534 370 498" stroke="#c4a44a" stroke-width="3" fill="none"/>
    <path d="M-56 842 C-80 820 -108 806 -142 800 C-110 813 -80 827 -56 842Z" fill="#c4a44a"/>
    <path d="M-10 806 C-36 782 -66 767 -102 760 C-68 774 -36 790 -10 806Z" fill="#c4a44a"/>
    <path d="M38 768 C12 743 -20 727 -58 720 C-18 734 18 751 38 768Z" fill="#c4a44a"/>
    <path d="M88 728 C60 702 26 685 -14 678 C28 692 64 710 88 728Z" fill="#c4a44a"/>
    <path d="M138 686 C108 659 73 641 31 634 C73 648 110 667 138 686Z" fill="#c4a44a"/>
    <!-- upper -->
    <path d="M-56 842 C-36 818 -20 792 -20 764 C-30 788 -40 816 -56 842Z" fill="#c4a44a"/>
    <path d="M-10 806 C12 780 30 754 34 724 C22 750 8 778 -10 806Z" fill="#c4a44a"/>
    <path d="M38 768 C62 740 84 714 90 684 C76 711 58 740 38 768Z" fill="#c4a44a"/>
  </g>

  <!-- ═══════════════════════════════════════
       BOTTOM-RIGHT CLUSTER
  ════════════════════════════════════════════ -->
  <g opacity="0.88">
    <path d="M1500 950 C1380 860 1250 758 1138 658 C1070 596 1020 548 1000 510" stroke="#c4a44a" stroke-width="3.5" fill="none"/>
    <path d="M1454 910 C1478 890 1506 876 1538 870 C1508 882 1478 896 1454 910Z" fill="#c4a44a"/>
    <path d="M1408 872 C1434 850 1464 835 1498 828 C1466 841 1434 857 1408 872Z" fill="#c4a44a"/>
    <path d="M1360 832 C1388 808 1420 792 1456 785 C1422 799 1388 815 1360 832Z" fill="#c4a44a"/>
    <path d="M1310 790 C1340 765 1374 748 1412 741 C1376 755 1340 772 1310 790Z" fill="#c4a44a"/>
    <path d="M1260 746 C1292 720 1327 702 1367 695 C1329 709 1292 727 1260 746Z" fill="#c4a44a"/>
    <path d="M1212 700 C1245 673 1282 655 1324 648 C1284 662 1244 680 1212 700Z" fill="#c4a44a"/>
    <path d="M1168 654 C1202 626 1240 607 1284 600 C1242 615 1202 633 1168 654Z" fill="#c4a44a"/>
    <!-- upper -->
    <path d="M1454 910 C1436 888 1424 864 1430 838 C1438 862 1446 888 1454 910Z" fill="#c4a44a"/>
    <path d="M1408 872 C1388 848 1372 824 1374 796 C1384 820 1398 847 1408 872Z" fill="#c4a44a"/>
    <path d="M1360 832 C1338 806 1320 780 1318 752 C1330 778 1348 806 1360 832Z" fill="#c4a44a"/>
    <path d="M1310 790 C1286 762 1264 736 1260 708 C1274 734 1292 762 1310 790Z" fill="#c4a44a"/>
    <path d="M1260 746 C1234 716 1210 690 1203 660 C1219 688 1238 716 1260 746Z" fill="#c4a44a"/>
  </g>
  <g opacity="0.65">
    <path d="M1540 880 C1430 806 1310 720 1202 632 C1136 578 1088 534 1070 498" stroke="#c4a44a" stroke-width="3" fill="none"/>
    <path d="M1496 842 C1520 820 1548 806 1582 800 C1550 813 1520 827 1496 842Z" fill="#c4a44a"/>
    <path d="M1450 806 C1476 782 1506 767 1542 760 C1508 774 1476 790 1450 806Z" fill="#c4a44a"/>
    <path d="M1402 768 C1428 743 1460 727 1498 720 C1458 734 1422 751 1402 768Z" fill="#c4a44a"/>
    <path d="M1352 728 C1380 702 1414 685 1454 678 C1412 692 1376 710 1352 728Z" fill="#c4a44a"/>
    <path d="M1302 686 C1332 659 1367 641 1409 634 C1367 648 1330 667 1302 686Z" fill="#c4a44a"/>
    <!-- upper -->
    <path d="M1496 842 C1476 818 1460 792 1460 764 C1470 788 1480 816 1496 842Z" fill="#c4a44a"/>
    <path d="M1450 806 C1428 780 1410 754 1406 724 C1418 750 1432 778 1450 806Z" fill="#c4a44a"/>
    <path d="M1402 768 C1378 740 1356 714 1350 684 C1364 711 1382 740 1402 768Z" fill="#c4a44a"/>
  </g>

</svg>
